# xmcd
#
# Track frame offsets: 
#        150
#        13615
#        27170
#        42297
#        58040
#        73275
#        87597
#        100392
#        115940
#        129752
#        146170
#        161032
#        175617
#        189780
#        205467
#        218222
#        231885
#        248370
#        260980
#        273235
#        287430
#        302292
#        314165
#        327602
#
# Disc length: 4529 seconds
#
# Revision: 2
# Processed by: cddbd v1.5.2PL0 Copyright (c) Steve Scherf et al.
# Submitted via: ExactAudioCopy v1.1
#
DISCID=6411af18
DTITLE=Tampa Red - Complete Recorded Works in Chronological Order Volu
DTITLE=me 7 (1935-1936)
DYEAR=1935
DGENRE=Blues
TTITLE0=My Baby Said Yes
TTITLE1=I'm Betting on You
TTITLE2=Rowdy Woman Blues
TTITLE3=Keep on Dealin' (Play Your Hand)
TTITLE4=(I Could Learn to Love You) So Good
TTITLE5=When I Take My Vacation in Harlem
TTITLE6=Drinkin' My Blues Away
TTITLE7=Dark and Stormy Night
TTITLE8=Good Woman Blues
TTITLE9=You Missed a Good Man
TTITLE10=Waiting Blues
TTITLE11=Tampa Red and Chicago Five - When You Were a Gal of Seven
TTITLE12=Tampa Red and Chicago Five - Let's Get Drunk and Truck
TTITLE13=Tampa Red and Chicago Five - Maybe It's Someone Else You Love
TTITLE14=Tampa Red and Chicago Five - I Wonder What's the Matter
TTITLE15=Tampa Red and Chicago Five - She Don't Know My Mind
TTITLE16=Tampa Red and Chicago Five - She Don't Know My Mind (Part 2)
TTITLE17=Stormy Seas Blues
TTITLE18=Nutty and Buggy Blues
TTITLE19=Tampa Red and the Chicago Five - You Stole My Heart
TTITLE20=Tampa Red and the Chicago Five - You Got Me Worryin'
TTITLE21=Tampa Red and the Chicago Five - All Night Long
TTITLE22=Tampa Red and the Chicago Five - That's the Way I Do
TTITLE23=Tampa Red and the Chicago Five - I Hate Myself
EXTD=DOCD-5207  27 July 1935 to 5 August 1936
EXTT0=
EXTT1=
EXTT2=
EXTT3=
EXTT4=
EXTT5=
EXTT6=
EXTT7=
EXTT8=
EXTT9=
EXTT10=
EXTT11=
EXTT12=
EXTT13=
EXTT14=
EXTT15=
EXTT16=
EXTT17=
EXTT18=
EXTT19=
EXTT20=
EXTT21=
EXTT22=
EXTT23=
PLAYORDER=
